<svg xmlns="http://www.w3.org/2000/svg" xmlns:xlink="http://www.w3.org/1999/xlink" width="40" zoomAndPan="magnify" viewBox="0 0 30 30.000001" height="40" preserveAspectRatio="xMidYMid meet" version="1.0"><defs><g/><clipPath id="b13ab6d140"><path d="M 3.480469 3.054688 L 26.554688 3.054688 L 26.554688 26.035156 L 3.480469 26.035156 Z M 3.480469 3.054688 " clip-rule="nonzero"/></clipPath><clipPath id="90c28b9ddb"><path d="M 10.738281 3.054688 L 19.261719 3.054688 C 21.1875 3.054688 23.035156 3.816406 24.394531 5.179688 C 25.757812 6.539062 26.519531 8.386719 26.519531 10.3125 L 26.519531 18.777344 C 26.519531 20.703125 25.757812 22.550781 24.394531 23.910156 C 23.035156 25.273438 21.1875 26.035156 19.261719 26.035156 L 10.738281 26.035156 C 8.8125 26.035156 6.964844 25.273438 5.605469 23.910156 C 4.242188 22.550781 3.480469 20.703125 3.480469 18.777344 L 3.480469 10.3125 C 3.480469 8.386719 4.242188 6.539062 5.605469 5.179688 C 6.964844 3.816406 8.8125 3.054688 10.738281 3.054688 Z M 10.738281 3.054688 " clip-rule="nonzero"/></clipPath></defs><g clip-path="url(#b13ab6d140)"><g clip-path="url(#90c28b9ddb)"><path fill="#ffd66b" d="M 3.480469 3.054688 L 26.554688 3.054688 L 26.554688 26.035156 L 3.480469 26.035156 Z M 3.480469 3.054688 " fill-opacity="1" fill-rule="nonzero"/></g></g><g fill="#23455b" fill-opacity="1"><g transform="translate(5.317892, 21.42857)"><g><path d="M 13.78125 0 L 13.78125 -5.140625 C 13.78125 -5.773438 13.804688 -6.425781 13.859375 -7.09375 C 13.910156 -7.769531 13.960938 -8.332031 14.015625 -8.78125 C 14.066406 -9.238281 14.101562 -9.53125 14.125 -9.65625 L 14.03125 -9.65625 L 11.40625 0 L 7.8125 0 L 5.15625 -9.640625 L 5.078125 -9.640625 C 5.085938 -9.515625 5.125 -9.226562 5.1875 -8.78125 C 5.25 -8.332031 5.304688 -7.769531 5.359375 -7.09375 C 5.421875 -6.425781 5.453125 -5.773438 5.453125 -5.140625 L 5.453125 0 L 1.25 0 L 1.25 -14.265625 L 7.71875 -14.265625 L 9.875 -6.03125 L 9.953125 -6.03125 L 12.09375 -14.265625 L 18.328125 -14.265625 L 18.328125 0 Z M 13.78125 0 "/></g></g></g></svg>